<?xml version="1.0" encoding="UTF-8" standalone="no"?>
<!-- Uploaded to: SVG Repo, www.svgrepo.com, Generator: SVG Repo Mixer Tools -->

<svg
   aria-label="Docker"
   role="img"
   viewBox="0 0 512 512"
   version="1.1"
   id="svg8"
   sodipodi:docname="docker.svg"
   inkscape:version="1.2 (dc2aedaf03, 2022-05-15)"
   xmlns:inkscape="http://www.inkscape.org/namespaces/inkscape"
   xmlns:sodipodi="http://sodipodi.sourceforge.net/DTD/sodipodi-0.dtd"
   xmlns="http://www.w3.org/2000/svg"
   xmlns:svg="http://www.w3.org/2000/svg">
  <defs
     id="defs12" />
  <sodipodi:namedview
     id="namedview10"
     pagecolor="#ffffff"
     bordercolor="#111111"
     borderopacity="1"
     inkscape:showpageshadow="0"
     inkscape:pageopacity="0"
     inkscape:pagecheckerboard="1"
     inkscape:deskcolor="#d1d1d1"
     showgrid="false"
     inkscape:zoom="1.1523438"
     inkscape:cx="256"
     inkscape:cy="256"
     inkscape:window-width="1366"
     inkscape:window-height="745"
     inkscape:window-x="1912"
     inkscape:window-y="-8"
     inkscape:window-maximized="1"
     inkscape:current-layer="svg8" />
  <rect
     width="512"
     height="512"
     rx="15%"
     fill="#ffffff"
     id="rect2"
     style="fill:#ffffff;fill-opacity:0" />
  <path
     stroke="#066da5"
     stroke-width="38"
     d="M296 226h42m-92 0h42m-91 0h42m-91 0h41m-91 0h42m8-46h41m8 0h42m7 0h42m-42-46h42"
     id="path4" />
  <path
     fill="#066da5"
     d="m472 228s-18-17-55-11c-4-29-35-46-35-46s-29 35-8 74c-6 3-16 7-31 7H68c-5 19-5 145 133 145 99 0 173-46 208-130 52 4 63-39 63-39"
     id="path6" />
</svg>
