<?xml version="1.0" encoding="UTF-8" standalone="no"?>
<svg
   width="500"
   height="500"
   viewBox="0 0 500 500"
   version="1.1"
   id="svg48"
   sodipodi:docname="gotham.svg"
   inkscape:version="1.2 (dc2aedaf03, 2022-05-15)"
   xmlns:inkscape="http://www.inkscape.org/namespaces/inkscape"
   xmlns:sodipodi="http://sodipodi.sourceforge.net/DTD/sodipodi-0.dtd"
   xmlns="http://www.w3.org/2000/svg"
   xmlns:svg="http://www.w3.org/2000/svg">
  <defs
     id="defs52" />
  <sodipodi:namedview
     id="namedview50"
     pagecolor="#ffffff"
     bordercolor="#111111"
     borderopacity="1"
     inkscape:showpageshadow="0"
     inkscape:pageopacity="0"
     inkscape:pagecheckerboard="1"
     inkscape:deskcolor="#d1d1d1"
     showgrid="false"
     inkscape:zoom="1.18"
     inkscape:cx="433.89831"
     inkscape:cy="318.64407"
     inkscape:window-width="1366"
     inkscape:window-height="745"
     inkscape:window-x="1912"
     inkscape:window-y="-8"
     inkscape:window-maximized="1"
     inkscape:current-layer="svg48" />
  <style
     id="style2">.a{fill:#777B83;}.b{fill:#383A3F;}.c{fill:#FFF;mix-blend-mode:overlay;opacity:0.2;}</style>
  <g
     id="g932">
    <rect
       width="500"
       height="500"
       fill="#ffffff"
       id="rect4"
       x="0"
       y="0"
       style="fill:#ffffff;fill-opacity:0" />
    <g
       transform="translate(82.715232,30)"
       id="g44"
       style="fill:none">
      <g
         transform="translate(0.644615,77.133251)"
         class="a"
         id="g12">
        <polygon
           points="133.6,115.6 66.9,154.1 0.2,115.6 0.2,38.6 66.9,0.1 133.6,38.6 "
           id="polygon6" />
        <polygon
           points="133.6,192.6 66.9,231.1 0.2,192.6 0.2,115.6 66.9,77.1 133.6,115.6 "
           id="polygon8" />
        <polygon
           points="133.6,269.6 66.9,308.1 0.2,269.6 0.2,192.6 66.9,154.1 133.6,192.6 "
           id="polygon10" />
      </g>
      <g
         transform="translate(276.62935,225.48432)"
         class="b"
         id="g20">
        <polygon
           points="57.3,49.5 28.7,66 0.1,49.5 0.1,16.5 28.7,0 57.3,16.5 "
           id="polygon14" />
        <polygon
           points="57.3,82.5 28.7,99 0.1,82.5 0.1,49.5 28.7,33 57.3,49.5 "
           id="polygon16" />
        <polygon
           points="57.3,115.5 28.7,132 0.1,115.5 0.1,82.5 28.7,66 57.3,82.5 "
           id="polygon18" />
      </g>
      <path
         d="m 277.1,241.8 28.6,-16.5 28.6,16.5 z m 0,0 h 57.2 l -28.6,16.5 z"
         class="c"
         id="path22" />
      <g
         transform="translate(209.96298,164.8635)"
         class="a"
         id="g30">
        <polygon
           points="95.3,82.6 47.7,110.1 0.1,82.6 0.1,27.6 47.7,0.1 95.3,27.6 "
           id="polygon24" />
        <polygon
           points="95.3,137.6 47.7,165.1 0.1,137.6 0.1,82.6 47.7,55.1 95.3,82.6 "
           id="polygon26" />
        <polygon
           points="95.3,192.6 47.7,220.1 0.1,192.6 0.1,137.6 47.7,110.1 95.3,137.6 "
           id="polygon28" />
      </g>
      <path
         d="m 0.1,115.6 67.1,-38.7 67,38.7 z m 0,0 h 134.1 l -67,38.7 z"
         class="c"
         id="path32" />
      <path
         d="m 209.6,192.5 47.8,-27.6 47.9,27.6 z m 0,0 h 95.7 l -47.9,27.6 z"
         class="c"
         id="path34" />
      <polygon
         points="257.7,165 162.4,220 67.2,165 67.2,55 162.4,0 257.7,55 "
         class="b"
         id="polygon36" />
      <polygon
         points="257.7,275 162.4,330 67.2,275 67.2,165 162.4,110 257.7,165 "
         class="b"
         id="polygon38" />
      <polygon
         points="257.7,385 162.4,440 67.2,385 67.2,275 162.4,220 257.7,275 "
         class="b"
         id="polygon40" />
      <path
         d="m 67.2,55 95.2,-55 95.3,55 z m 0,0 h 190.5 l -95.3,55 z"
         class="c"
         id="path42" />
    </g>
  </g>
</svg>
